<?xml version="1.0" encoding="iso-8859-1"?>
<!-- Generator: Adobe Illustrator 21.0.2, SVG Export Plug-In . SVG Version: 6.00 Build 0)  -->
<svg xmlns="http://www.w3.org/2000/svg" xmlns:xlink="http://www.w3.org/1999/xlink" version="1.1" id="Layer_1" x="0px" y="0px" viewBox="0 0 40 40" style="enable-background:new 0 0 40 40;" xml:space="preserve">
<g>
	<path style="fill:#0680f5;" d="M4,37.5c-0.827,0-1.5-0.673-1.5-1.5V13.207L13.207,2.5H36c0.827,0,1.5,0.673,1.5,1.5v32   c0,0.827-0.673,1.5-1.5,1.5H4z"/>
	<g>
		<path style="fill:#0680f5;" d="M36,3c0.551,0,1,0.449,1,1v32c0,0.551-0.449,1-1,1H4c-0.551,0-1-0.449-1-1V13.414L13.414,3H36     M36,2H13L2,13v23c0,1.105,0.895,2,2,2h32c1.105,0,2-0.895,2-2V4C38,2.895,37.105,2,36,2L36,2z"/>
	</g>
</g>
<polygon style="fill:#FFFFFF;" points="23,23 17,23 17,20 20,17 23,17 "/>
<polygon style="fill:#FFFFFF;" points="37,33 7,33 7,16 16,7 33,7 33,28 12,28 12,18 18,12 28,12 28,23 20,23 20,21 26,21 26,14   19,14 14,19 14,26 31,26 31,9 17,9 9,17 9,31 37,31 "/>
</svg>
